<svg width="19" height="26" viewBox="0 0 19 26" fill="none" xmlns="http://www.w3.org/2000/svg">
<path d="M0.370436 0H18.1876C18.2919 0.0742912 18.403 0.145777 18.4878 0.24206C18.6435 0.7691 18.5825 1.54096 18.3191 2.02714C18.1091 2.41476 17.8633 2.62501 17.5345 2.8994C17.4914 3.629 17.5401 4.5006 17.5195 5.24944C17.4878 6.95178 16.8795 8.58991 15.7987 9.88365C15.2057 10.6042 14.3711 11.2643 13.6995 11.9189C13.4563 12.16 13.1655 12.3688 12.9504 12.636C12.9165 12.678 12.9433 12.7107 12.9771 12.7428C13.6988 13.429 14.4487 14.0997 15.1744 14.7802C16.7221 16.2316 17.5758 18.3073 17.5245 20.4539C17.5114 21.1039 17.525 21.7872 17.5219 22.4451C18.0437 22.8413 18.464 23.2883 18.5326 23.9732C18.5881 24.5281 18.6928 25.0243 18.1734 25.3368H0.380413C-0.0267165 25.0503 -0.000938756 24.958 0.000945658 24.4493C0.00309582 23.8687 0.148365 23.2907 0.551823 22.8645C0.702672 22.7052 0.874444 22.5752 1.03194 22.4224C1.02556 21.5624 1.00449 20.1733 1.09758 19.3615C1.30858 17.573 2.14367 15.923 3.44892 14.7154C3.94157 14.2556 4.43688 13.7988 4.93485 13.345C5.1502 13.1465 5.38677 12.9358 5.59024 12.7246C5.68419 12.627 5.47041 12.4724 5.37312 12.385C4.91803 11.9764 4.46737 11.5627 4.0212 11.144C3.55208 10.7084 3.09842 10.303 2.69827 9.80459C1.5136 8.32905 1.0208 6.67835 1.0359 4.78578C1.03945 4.34254 1.06315 3.27574 1.0171 2.87877C0.139112 2.19593 -0.0867037 1.56478 0.0280281 0.432532C0.0493365 0.222257 0.214344 0.102012 0.370436 0ZM3.1004 22.1646C3.50832 22.1676 3.96996 22.1808 4.37332 22.1617C4.75919 21.6935 5.21055 21.04 5.57514 20.542L7.74895 17.5733L8.38797 16.6987C8.61868 16.3766 9.07565 15.5314 9.58662 15.9592C9.88175 16.2063 10.1246 16.6753 10.3777 16.9734C10.9672 17.7338 11.5462 18.633 12.1394 19.3786C12.568 19.9721 12.9995 20.5635 13.4339 21.1525C13.6359 21.4279 13.9625 21.9025 14.1778 22.1492C14.5297 22.1878 15.0989 22.1707 15.4651 22.1675C15.473 20.6984 15.6018 19.345 14.9609 17.9768C14.4647 16.9173 13.8873 16.4366 13.0702 15.6818L11.4641 14.2033C11.1287 13.895 10.7525 13.5842 10.4717 13.2254C10.3595 13.082 10.3289 12.8369 10.3266 12.6598C10.3183 12.0239 10.9073 11.6514 11.3239 11.2632L13.0139 9.70166C14.209 8.60936 15.1288 7.68645 15.3889 5.97109C15.5309 5.03549 15.4476 4.12237 15.4748 3.18333C12.5194 3.14547 9.50866 3.1737 6.54943 3.17472L4.22283 3.17717C3.96346 3.17769 3.32061 3.19907 3.10511 3.16255C3.07066 5.3397 2.94607 7.02579 4.55226 8.75849C4.86887 9.10004 5.22865 9.41249 5.57149 9.72836L7.26737 11.2941C7.49891 11.5122 7.87874 11.8094 8.053 12.0556C8.18355 12.2386 8.25052 12.4611 8.24328 12.6876C8.23501 13.053 8.07605 13.2992 7.8216 13.5344C7.11033 14.1922 6.39022 14.849 5.67989 15.5073C5.2724 15.8849 4.82427 16.2724 4.45563 16.6793C3.60561 17.6175 3.13569 18.859 3.10653 20.136C3.09122 20.8074 3.10489 21.4892 3.1004 22.1646Z" fill="black"/>
<path d="M5.83417 7.38461C6.79882 7.3498 7.78302 7.38001 8.79009 7.38137C10.1486 7.38318 11.6487 7.34258 13.0051 7.42856C13.0733 7.44791 13.1721 7.52095 13.2147 7.56912C13.6641 8.0769 12.8173 8.65279 12.4508 8.99573L11.203 10.174C10.8914 10.4607 9.67596 11.7287 9.36721 11.7822C9.21286 11.8089 9.07904 11.7578 8.95609 11.6651C8.65405 11.4376 8.38151 11.1439 8.10699 10.8822L6.74505 9.59208C6.47768 9.33716 6.20857 9.08408 5.93779 8.83294C5.75911 8.66919 5.57818 8.51497 5.40917 8.33593C5.20538 8.12012 5.15047 7.82281 5.33915 7.57459C5.46087 7.41445 5.65136 7.40188 5.83417 7.38461Z" fill="black"/>
</svg>
