<svg width="30" height="35" viewBox="0 0 30 35" fill="none" xmlns="http://www.w3.org/2000/svg">
<path d="M12.7279 33C12.7279 34.1046 13.6233 35 14.7279 35C15.8325 35 16.7279 34.1046 16.7279 33H14.7279H12.7279ZM16.1421 0.585785C15.3611 -0.195263 14.0947 -0.195263 13.3137 0.585785L0.58577 13.3137C-0.195279 14.0948 -0.195279 15.3611 0.58577 16.1421C1.36682 16.9232 2.63315 16.9232 3.4142 16.1421L14.7279 4.82843L26.0416 16.1421C26.8227 16.9232 28.089 16.9232 28.87 16.1421C29.6511 15.3611 29.6511 14.0948 28.87 13.3137L16.1421 0.585785ZM14.7279 33H16.7279L16.7279 2H14.7279H12.7279L12.7279 33H14.7279Z" fill="url(#paint0_linear_60_20)"/>
<defs>
<linearGradient id="paint0_linear_60_20" x1="15.2279" y1="2" x2="15.2279" y2="33" gradientUnits="userSpaceOnUse">
<stop stop-color="#036D19"/>
<stop offset="1" stop-color="#06D330" stop-opacity="0"/>
</linearGradient>
</defs>
</svg>
