<svg width="23" height="23" viewBox="0 0 23 23" fill="none" xmlns="http://www.w3.org/2000/svg">
<path d="M11.1639 0H11.8299L11.8454 0.00825644C11.964 0.0701547 12.1307 0.118619 12.2605 0.170556C12.7068 0.349106 13.028 0.727395 13.3614 1.06078L21.9801 9.68078C22.4118 10.1128 22.7745 10.4136 22.9342 11.0185C22.9465 11.0658 22.9775 11.1497 23 11.1938V11.8073C22.8792 12.1054 22.7877 12.4612 22.5672 12.7053C22.1027 13.2197 21.5764 13.7214 21.0845 14.2131L14.6367 20.6609C14.024 21.2737 13.4075 21.9044 12.7819 22.5045C12.622 22.6579 12.4229 22.7576 12.2231 22.8443C12.1346 22.8828 11.8878 22.9593 11.8317 23H11.1663C11.1071 22.9634 10.9544 22.9093 10.8828 22.8859C10.1 22.631 9.59446 21.9277 9.57548 21.1067C9.56562 20.6976 9.68678 20.296 9.92129 19.9605C10.1233 19.6699 10.5614 19.2572 10.8282 18.9909L16.1831 13.6377C16.8796 12.9417 17.6402 12.2088 18.317 11.4998C17.7142 10.8372 16.8816 10.0537 16.2294 9.40188L11.0734 4.24736C10.9227 4.09705 10.7669 3.94576 10.6194 3.7941C10.3087 3.47048 9.9166 3.1395 9.733 2.71995C9.33389 1.80801 9.71445 0.641345 10.6295 0.209532C10.8042 0.127101 10.9878 0.0783977 11.1639 0Z" fill="black"/>
<path d="M0 2.63194C0.103358 2.46301 0.119478 2.26326 0.201085 2.09567C0.454205 1.57586 0.888683 1.1724 1.45353 1.01988C1.93965 0.88628 2.45916 0.955417 2.89342 1.2115C3.32554 1.46232 4.43309 2.70925 4.84013 3.13729L9.88259 8.45296C10.4099 9.00768 11.2292 9.71102 11.4239 10.4554C11.5705 11.004 11.4929 11.5884 11.2081 12.0797C10.9945 12.4436 10.1164 13.3223 9.77361 13.6823L4.58518 19.1507C4.31522 19.4335 4.04517 19.7177 3.77818 20.0032C3.3626 20.4477 3.00896 20.8625 2.39719 21.0204C1.92164 21.1386 1.41861 21.0622 0.999552 20.8082C0.604188 20.5771 0.303014 20.214 0.149041 19.7827C0.125402 19.7158 0.0340139 19.4308 0 19.3837V18.6451C0.141037 18.4368 0.177805 18.0384 0.383601 17.7915C1.00978 17.0401 1.71789 16.3507 2.38843 15.6399L6.78013 11.0059C6.40289 10.6389 5.95626 10.1354 5.5841 9.74588L2.68545 6.68834L1.16552 5.09123C0.878054 4.78671 0.581949 4.48986 0.329453 4.15497C0.158134 3.92773 0.130987 3.60315 0 3.37167V2.63194Z" fill="black"/>
</svg>
