<svg width="62" height="55" viewBox="0 0 62 55" fill="none" xmlns="http://www.w3.org/2000/svg">
<path d="M6.37854 2.77833C7.63778 2.63659 9.19084 3.06064 10.2873 3.70771C11.8555 4.63309 13.0935 6.2447 13.4653 8.02101C13.6243 8.7806 13.5343 9.47103 13.7723 10.3391C14.3796 12.5547 15.7008 14.6713 17.7133 15.88C18.8578 16.5501 21.0421 17.0079 22.3636 16.6813C24.9003 16.0541 26.7184 15.5771 29.181 17.0326C30.704 17.9306 31.8061 19.3856 32.2472 21.081C32.6791 22.8047 32.4563 24.6709 31.5153 26.198C30.5784 27.7429 29.0572 28.8577 27.2869 29.2961C23.2358 30.2647 19.4305 27.4547 18.8733 23.5052C18.7519 22.6448 18.7408 21.8189 18.5439 20.9628C17.4838 16.3531 11.1774 12.764 8.08467 17.9514C7.68782 18.5262 7.52274 19.7328 7.48576 20.4435C7.33718 22.3332 8.31839 24.9308 9.82105 26.1828C11.7359 27.7794 13.2159 28.817 13.5395 31.567C13.7555 33.3464 13.2381 35.1367 12.1035 36.5362C10.9432 37.966 9.24752 38.8733 7.39987 39.0539C3.82722 39.4124 0.427275 36.7189 0.0456673 33.1912C-0.181061 31.0955 0.440974 29.2479 1.89388 27.7064C2.42478 27.1424 3.02619 26.6461 3.51348 26.0428C6.18998 22.7758 5.78789 19.0469 3.48377 15.6969C3.08483 15.1169 2.50508 14.7016 1.99396 14.2155C0.898274 13.179 0.207606 11.795 0.0430811 10.3064C-0.380881 6.3233 2.36761 3.17239 6.37854 2.77833Z" fill="url(#paint0_linear_24_44)"/>
<path d="M40.0545 0.0163155C40.414 -0.00733097 40.7748 -0.00526351 41.134 0.0224504C42.9348 0.149645 44.6074 0.988437 45.7728 2.34869C46.924 3.67407 47.4953 5.39557 47.3617 7.13583C47.3132 7.7789 47.1455 8.42879 47.1038 9.07311C46.8314 13.2911 49.2052 17.3411 53.7362 17.7722C54.4097 17.8363 55.0941 17.7871 55.7714 17.8425C57.5773 18.0019 59.245 18.8632 60.4073 20.2366C63.6369 24.016 61.7003 29.8318 56.8896 31.0279C55.9361 31.2651 55.1291 31.2333 54.1797 31.3409C52.5903 31.5222 50.9108 32.1806 49.6769 33.1926C47.8781 34.6652 46.7654 37.5972 46.7241 39.8591C46.7089 40.6892 47.069 41.3586 46.9547 42.5368C46.7677 44.3478 45.8598 46.012 44.4302 47.164C42.8347 48.4449 41.1538 48.7807 39.1564 48.5842C37.9983 48.3912 36.9991 47.9948 36.0585 47.2881C34.6136 46.2182 33.6685 44.6174 33.438 42.8498C33.1913 41.0697 33.6778 39.2662 34.789 37.8419C35.4466 37.0043 36.5765 36.0688 37.6021 35.7599C38.4099 35.5166 39.7191 35.5848 40.6272 35.469C43.8305 35.0437 46.7369 33.396 48.7214 30.8797C50.4906 28.6219 51.2564 25.7533 50.844 22.9288C50.2022 18.3607 46.5171 14.9207 42.1217 13.6143C41.4831 13.4245 40.696 13.3932 40.0285 13.3488C38.7098 13.261 37.521 12.7993 36.4728 12.0102C35.049 10.9457 34.1119 9.367 33.8676 7.62123C33.3482 3.62505 36.0759 0.512201 40.0545 0.0163155Z" fill="url(#paint1_linear_24_44)"/>
<path d="M6.01378 41.6536C9.74312 41.1435 13.1824 43.7205 13.684 47.4012C14.1857 51.0819 11.5586 54.4634 7.82509 54.9432C4.11364 55.4196 0.709916 52.8467 0.21124 49.1881C-0.287507 45.5288 2.30652 42.161 6.01378 41.6536Z" fill="url(#paint2_linear_24_44)"/>
<defs>
<linearGradient id="paint0_linear_24_44" x1="31" y1="0" x2="31" y2="55" gradientUnits="userSpaceOnUse">
<stop offset="0.5" stop-color="#1C6F24"/>
<stop offset="0.75" stop-color="#36882B"/>
<stop offset="1" stop-color="#AAE548"/>
</linearGradient>
<linearGradient id="paint1_linear_24_44" x1="31" y1="0" x2="31" y2="55" gradientUnits="userSpaceOnUse">
<stop offset="0.5" stop-color="#1C6F24"/>
<stop offset="0.75" stop-color="#36882B"/>
<stop offset="1" stop-color="#AAE548"/>
</linearGradient>
<linearGradient id="paint2_linear_24_44" x1="31" y1="0" x2="31" y2="55" gradientUnits="userSpaceOnUse">
<stop offset="0.5" stop-color="#1C6F24"/>
<stop offset="0.75" stop-color="#36882B"/>
<stop offset="1" stop-color="#AAE548"/>
</linearGradient>
</defs>
</svg>
